<svg width="20" height="20" xmlns="http://www.w3.org/2000/svg" class="bi bi-shield">

 <g>
  <title>background</title>
  <rect fill="none" id="canvas_background" height="402" width="582" y="-1" x="-1"/>
 </g>
 <g>
  <title>Layer 1</title>
  <path fill="#ffffff" id="svg_1" clip-rule="evenodd" d="m7.443,3.991a60.17,60.17 0 0 0 -2.725,0.802a0.454,0.454 0 0 0 -0.315,0.366c-0.533,3.897 0.697,6.741 2.164,8.614c0.736,0.94 1.533,1.636 2.197,2.093c0.333,0.228 0.626,0.394 0.857,0.5c0.116,0.053 0.21,0.089 0.282,0.11a0.73,0.73 0 0 0 0.097,0.024a0.774,0.774 0 0 0 0.097,-0.023c0.072,-0.022 0.166,-0.058 0.282,-0.111c0.23,-0.106 0.524,-0.272 0.857,-0.5a10.198,10.198 0 0 0 2.197,-2.093c1.467,-1.873 2.697,-4.717 2.164,-8.614a0.454,0.454 0 0 0 -0.315,-0.366c-0.626,-0.2 -1.682,-0.526 -2.725,-0.802c-1.066,-0.281 -2.047,-0.491 -2.557,-0.491c-0.51,0 -1.49,0.21 -2.557,0.491zm-0.256,-0.966c1.043,-0.276 2.15,-0.525 2.813,-0.525c0.662,0 1.77,0.249 2.813,0.525c1.066,0.282 2.14,0.614 2.772,0.815c0.528,0.168 0.926,0.623 1.003,1.184c0.573,4.197 -0.756,7.307 -2.367,9.365a11.192,11.192 0 0 1 -2.418,2.3a6.942,6.942 0 0 1 -1.007,0.586c-0.27,0.124 -0.558,0.225 -0.796,0.225s-0.527,-0.101 -0.796,-0.225a6.908,6.908 0 0 1 -1.007,-0.586a11.192,11.192 0 0 1 -2.418,-2.3c-1.611,-2.058 -2.94,-5.168 -2.367,-9.365a1.454,1.454 0 0 1 1.003,-1.184a61.113,61.113 0 0 1 2.772,-0.815z" fill-rule="evenodd"/>
 </g>
</svg>